<mxfile host="app.diagrams.net" agent="Mozilla/5.0 (Windows NT 10.0; Win64; x64; rv:142.0) Gecko/20100101 Firefox/142.0" version="28.1.1">
  <diagram name="Page-1" id="9RxhZZzJOUIAfrTO5wfi">
    <mxGraphModel dx="1636" dy="473" grid="1" gridSize="10" guides="1" tooltips="1" connect="1" arrows="1" fold="1" page="1" pageScale="1" pageWidth="850" pageHeight="1100" math="0" shadow="0">
      <root>
        <mxCell id="0" />
        <mxCell id="1" parent="0" />
        <mxCell id="P5VV7uiac1PhrCfYSXpr-1" value="" style="sketch=0;verticalLabelPosition=bottom;sketch=0;aspect=fixed;html=1;verticalAlign=top;strokeColor=none;fillColor=#000000;align=center;outlineConnect=0;pointerEvents=1;shape=mxgraph.citrix2.wifi_router;" parent="1" vertex="1">
          <mxGeometry x="420" y="20" width="49.9" height="50" as="geometry" />
        </mxCell>
        <mxCell id="P5VV7uiac1PhrCfYSXpr-2" value="" style="fontColor=#0066CC;verticalAlign=top;verticalLabelPosition=bottom;labelPosition=center;align=center;html=1;outlineConnect=0;fillColor=#CCCCCC;strokeColor=#6881B3;gradientColor=none;gradientDirection=north;strokeWidth=2;shape=mxgraph.networks.pc;" parent="1" vertex="1">
          <mxGeometry x="59.99" y="120" width="71.43" height="50" as="geometry" />
        </mxCell>
        <mxCell id="P5VV7uiac1PhrCfYSXpr-3" value="SLT Router" style="text;html=1;align=center;verticalAlign=middle;resizable=0;points=[];autosize=1;strokeColor=none;fillColor=none;" parent="1" vertex="1">
          <mxGeometry x="469.9" y="30" width="80" height="30" as="geometry" />
        </mxCell>
        <mxCell id="P5VV7uiac1PhrCfYSXpr-4" value="PC" style="text;html=1;align=center;verticalAlign=middle;resizable=0;points=[];autosize=1;strokeColor=none;fillColor=none;" parent="1" vertex="1">
          <mxGeometry x="10" y="130" width="40" height="30" as="geometry" />
        </mxCell>
        <mxCell id="P5VV7uiac1PhrCfYSXpr-5" style="edgeStyle=orthogonalEdgeStyle;rounded=0;orthogonalLoop=1;jettySize=auto;html=1;exitX=0;exitY=0.5;exitDx=0;exitDy=0;exitPerimeter=0;endArrow=none;endFill=0;" parent="1" source="P5VV7uiac1PhrCfYSXpr-7" target="P5VV7uiac1PhrCfYSXpr-2" edge="1">
          <mxGeometry relative="1" as="geometry" />
        </mxCell>
        <mxCell id="P5VV7uiac1PhrCfYSXpr-7" value="" style="sketch=0;points=[[0.015,0.015,0],[0.985,0.015,0],[0.985,0.985,0],[0.015,0.985,0],[0.25,0,0],[0.5,0,0],[0.75,0,0],[1,0.25,0],[1,0.5,0],[1,0.75,0],[0.75,1,0],[0.5,1,0],[0.25,1,0],[0,0.75,0],[0,0.5,0],[0,0.25,0]];verticalLabelPosition=bottom;html=1;verticalAlign=top;aspect=fixed;align=center;pointerEvents=1;shape=mxgraph.cisco19.rect;prIcon=l2_switch;fillColor=#FAFAFA;strokeColor=#005073;" parent="1" vertex="1">
          <mxGeometry x="420" y="120" width="50" height="50" as="geometry" />
        </mxCell>
        <mxCell id="P5VV7uiac1PhrCfYSXpr-8" style="edgeStyle=orthogonalEdgeStyle;rounded=0;orthogonalLoop=1;jettySize=auto;html=1;entryX=0.5;entryY=0;entryDx=0;entryDy=0;entryPerimeter=0;endArrow=none;endFill=0;" parent="1" source="P5VV7uiac1PhrCfYSXpr-1" target="P5VV7uiac1PhrCfYSXpr-7" edge="1">
          <mxGeometry relative="1" as="geometry" />
        </mxCell>
        <mxCell id="P5VV7uiac1PhrCfYSXpr-25" style="edgeStyle=orthogonalEdgeStyle;rounded=0;orthogonalLoop=1;jettySize=auto;html=1;exitX=0.5;exitY=1;exitDx=0;exitDy=0;exitPerimeter=0;entryX=0.5;entryY=0;entryDx=0;entryDy=0;endArrow=none;endFill=0;" parent="1" source="P5VV7uiac1PhrCfYSXpr-9" target="P5VV7uiac1PhrCfYSXpr-14" edge="1">
          <mxGeometry relative="1" as="geometry" />
        </mxCell>
        <mxCell id="P5VV7uiac1PhrCfYSXpr-9" value="" style="sketch=0;aspect=fixed;pointerEvents=1;shadow=0;dashed=0;html=1;strokeColor=none;labelPosition=center;verticalLabelPosition=bottom;verticalAlign=top;align=center;fillColor=#00188D;shape=mxgraph.azure.server" parent="1" vertex="1">
          <mxGeometry x="868.5699999999999" y="340" width="100" height="30" as="geometry" />
        </mxCell>
        <mxCell id="P5VV7uiac1PhrCfYSXpr-23" style="edgeStyle=orthogonalEdgeStyle;rounded=0;orthogonalLoop=1;jettySize=auto;html=1;entryX=0.5;entryY=0;entryDx=0;entryDy=0;endArrow=none;endFill=0;" parent="1" source="P5VV7uiac1PhrCfYSXpr-10" target="P5VV7uiac1PhrCfYSXpr-15" edge="1">
          <mxGeometry relative="1" as="geometry" />
        </mxCell>
        <mxCell id="P5VV7uiac1PhrCfYSXpr-10" value="" style="shape=mxgraph.networks2.icon;aspect=fixed;fillColor=#EDEDED;strokeColor=#000000;gradientColor=#5B6163;network2IconShadow=1;network2bgFillColor=none;network2Icon=mxgraph.networks2.desktop_pc;network2IconXOffset=-0.0034;network2IconYOffset=0.00035;network2IconW=0.453;network2IconH=0.9995;" parent="1" vertex="1">
          <mxGeometry x="44.29000000000002" y="309.99" width="22.650000000000002" height="49.975" as="geometry" />
        </mxCell>
        <mxCell id="P5VV7uiac1PhrCfYSXpr-12" value="Server 01" style="text;html=1;align=center;verticalAlign=middle;resizable=0;points=[];autosize=1;strokeColor=none;fillColor=none;" parent="1" vertex="1">
          <mxGeometry x="780" y="339.99" width="80" height="30" as="geometry" />
        </mxCell>
        <mxCell id="P5VV7uiac1PhrCfYSXpr-13" value="Server 02" style="text;html=1;align=center;verticalAlign=middle;resizable=0;points=[];autosize=1;strokeColor=none;fillColor=none;" parent="1" vertex="1">
          <mxGeometry x="89.95000000000002" y="309.99" width="80" height="30" as="geometry" />
        </mxCell>
        <mxCell id="P5VV7uiac1PhrCfYSXpr-14" value="" style="shape=image;verticalLabelPosition=bottom;verticalAlign=top;imageAspect=0;aspect=fixed;image=data:image/svg+xml,PHN2ZyBoZWlnaHQ9IjE1NS42NDMxNDg0MjIyNDEyIiB3aWR0aD0iMTgyLjgwNTAwNDExOTg3MzA1IiB2aWV3Qm94PSI1LjcxOTk5OTc5MDE5MTY1IDguNDM3Njg1MDEyODE3MzgzIDM2LjU2MTAwMDgyMzk3NDYxIDMxLjEyODYyOTY4NDQ0ODI0MiIgeG1sbnM9Imh0dHA6Ly93d3cudzMub3JnLzIwMDAvc3ZnIj48bGluZWFyR3JhZGllbnQgZ3JhZGllbnRVbml0cz0idXNlclNwYWNlT25Vc2UiIHkyPSIyMyIgeTE9IjguNDM4IiB4Mj0iMjQiIHgxPSIyNCIgaWQ9Ik1saGl4bVhtRE01ZDU0OUlxN0hheWEiPjxzdG9wIHN0b3AtY29sb3I9IiM0MTQ3NGEiIG9mZnNldD0iMCIvPjxzdG9wIHN0b3AtY29sb3I9IiMzMjM1MzgiIG9mZnNldD0iMSIvPjwvbGluZWFyR3JhZGllbnQ+PHBhdGggZD0iTTEyLDEwbDEyLDEzbDEyLTEzbDAsMCBjLTIuMTctMi4xNy01LjcxOS0yLjA2Ni03Ljc1OCwwLjIyOEwyNCwxNWwtNC4yNDItNC43NzJDMTcuNzE5LDcuOTM0LDE0LjE3LDcuODMsMTIsMTBMMTIsMTB6IiBmaWxsPSJ1cmwoI01saGl4bVhtRE01ZDU0OUlxN0hheWEpIi8+PGxpbmVhckdyYWRpZW50IGdyYWRpZW50VW5pdHM9InVzZXJTcGFjZU9uVXNlIiB5Mj0iMjQiIHkxPSIyNCIgeDI9IjIzLjAwMSIgeDE9IjUuNzIiIGlkPSJNbGhpeG1YbURNNWQ1NDlJcTdIYXliIj48c3RvcCBzdG9wLWNvbG9yPSIjZTc3MTAxIiBvZmZzZXQ9IjAiLz48c3RvcCBzdG9wLWNvbG9yPSIjZTQ2NDAxIiBvZmZzZXQ9Ii43NzEiLz48c3RvcCBzdG9wLWNvbG9yPSIjZTM2MDAxIiBvZmZzZXQ9Ii45NDEiLz48L2xpbmVhckdyYWRpZW50PjxwYXRoIGQ9Ik0xMy42MTMsMzMuODk2TDIzLjAwMSwyNGwtOS4zODgtOS44OTYgQzExLjQ4LDExLjg1NSw3LjkxMiwxMS44MDgsNS43MiwxNGwwLDBsOS4yODEsMTBMNS43MiwzNGwwLDBDNy45MTIsMzYuMTkyLDExLjQ4LDM2LjE0NSwxMy42MTMsMzMuODk2eiIgZmlsbD0idXJsKCNNbGhpeG1YbURNNWQ1NDlJcTdIYXliKSIvPjxsaW5lYXJHcmFkaWVudCBncmFkaWVudFVuaXRzPSJ1c2VyU3BhY2VPblVzZSIgeTI9IjM1LjYxNCIgeTE9IjEyLjM4NiIgeDI9IjMzLjY0MSIgeDE9IjMzLjY0MSIgaWQ9Ik1saGl4bVhtRE01ZDU0OUlxN0hheWMiPjxzdG9wIHN0b3AtY29sb3I9IiNlNzcxMDEiIG9mZnNldD0iMCIvPjxzdG9wIHN0b3AtY29sb3I9IiNlNDY0MDEiIG9mZnNldD0iLjc3MSIvPjxzdG9wIHN0b3AtY29sb3I9IiNlMzYwMDEiIG9mZnNldD0iLjk0MSIvPjwvbGluZWFyR3JhZGllbnQ+PHBhdGggZD0iTTM0LjM4OCwzMy44OTZMMjUsMjRsOS4zODgtOS44OTYgYzIuMTMzLTIuMjQ5LDUuNzAxLTIuMjk2LDcuODkzLTAuMTA0bDAsMEwzMywyNGw5LjI4MSwxMGwwLDBDNDAuMDg5LDM2LjE5MiwzNi41MjEsMzYuMTQ1LDM0LjM4OCwzMy44OTZ6IiBmaWxsPSJ1cmwoI01saGl4bVhtRE01ZDU0OUlxN0hheWMpIi8+PGxpbmVhckdyYWRpZW50IGdyYWRpZW50VW5pdHM9InVzZXJTcGFjZU9uVXNlIiB5Mj0iMzkuNTY2IiB5MT0iMjUuMDA0IiB4Mj0iMjMuOTkxIiB4MT0iMjMuOTkxIiBpZD0iTWxoaXhtWG1ETTVkNTQ5SXE3SGF5ZCI+PHN0b3Agc3RvcC1jb2xvcj0iIzQxNDc0YSIgb2Zmc2V0PSIwIi8+PHN0b3Agc3RvcC1jb2xvcj0iIzMyMzUzOCIgb2Zmc2V0PSIxIi8+PC9saW5lYXJHcmFkaWVudD48cGF0aCBkPSJNMzUuOTkxLDM4LjAwNGwtMTItMTNsLTEyLDEzbDAsMCBjMi4xNywyLjE3LDUuNzE5LDIuMDY2LDcuNzU4LTAuMjI4bDQuMjQyLTQuNzcybDQuMjQyLDQuNzcyQzMwLjI3Miw0MC4wNywzMy44MjEsNDAuMTc0LDM1Ljk5MSwzOC4wMDRMMzUuOTkxLDM4LjAwNHoiIGZpbGw9InVybCgjTWxoaXhtWG1ETTVkNTQ5SXE3SGF5ZCkiLz48L3N2Zz4=" parent="1" vertex="1">
          <mxGeometry x="891.5899999999999" y="420" width="53.96" height="46" as="geometry" />
        </mxCell>
        <mxCell id="P5VV7uiac1PhrCfYSXpr-34" style="edgeStyle=orthogonalEdgeStyle;rounded=0;orthogonalLoop=1;jettySize=auto;html=1;entryX=0.5;entryY=0;entryDx=0;entryDy=0;endArrow=none;endFill=0;" parent="1" source="P5VV7uiac1PhrCfYSXpr-15" target="P5VV7uiac1PhrCfYSXpr-31" edge="1">
          <mxGeometry relative="1" as="geometry">
            <Array as="points">
              <mxPoint x="56" y="530" />
              <mxPoint x="-300" y="530" />
            </Array>
          </mxGeometry>
        </mxCell>
        <mxCell id="P5VV7uiac1PhrCfYSXpr-42" style="edgeStyle=orthogonalEdgeStyle;rounded=0;orthogonalLoop=1;jettySize=auto;html=1;entryX=0.5;entryY=0;entryDx=0;entryDy=0;endArrow=none;endFill=0;" parent="1" source="P5VV7uiac1PhrCfYSXpr-15" target="P5VV7uiac1PhrCfYSXpr-38" edge="1">
          <mxGeometry relative="1" as="geometry">
            <Array as="points">
              <mxPoint x="56" y="530" />
              <mxPoint x="-85" y="530" />
            </Array>
          </mxGeometry>
        </mxCell>
        <mxCell id="kRqwa3o0PPWYJBAYLQpp-6" style="edgeStyle=orthogonalEdgeStyle;rounded=0;orthogonalLoop=1;jettySize=auto;html=1;entryX=0.5;entryY=0;entryDx=0;entryDy=0;endArrow=none;endFill=0;" edge="1" parent="1" source="P5VV7uiac1PhrCfYSXpr-15" target="kRqwa3o0PPWYJBAYLQpp-2">
          <mxGeometry relative="1" as="geometry">
            <Array as="points">
              <mxPoint x="56" y="530" />
              <mxPoint x="150" y="530" />
            </Array>
          </mxGeometry>
        </mxCell>
        <mxCell id="P5VV7uiac1PhrCfYSXpr-15" value="" style="shape=image;verticalLabelPosition=bottom;verticalAlign=top;imageAspect=0;aspect=fixed;image=data:image/svg+xml,PHN2ZyBoZWlnaHQ9IjE1NS42NDMxNDg0MjIyNDEyIiB3aWR0aD0iMTgyLjgwNTAwNDExOTg3MzA1IiB2aWV3Qm94PSI1LjcxOTk5OTc5MDE5MTY1IDguNDM3Njg1MDEyODE3MzgzIDM2LjU2MTAwMDgyMzk3NDYxIDMxLjEyODYyOTY4NDQ0ODI0MiIgeG1sbnM9Imh0dHA6Ly93d3cudzMub3JnLzIwMDAvc3ZnIj48bGluZWFyR3JhZGllbnQgZ3JhZGllbnRVbml0cz0idXNlclNwYWNlT25Vc2UiIHkyPSIyMyIgeTE9IjguNDM4IiB4Mj0iMjQiIHgxPSIyNCIgaWQ9Ik1saGl4bVhtRE01ZDU0OUlxN0hheWEiPjxzdG9wIHN0b3AtY29sb3I9IiM0MTQ3NGEiIG9mZnNldD0iMCIvPjxzdG9wIHN0b3AtY29sb3I9IiMzMjM1MzgiIG9mZnNldD0iMSIvPjwvbGluZWFyR3JhZGllbnQ+PHBhdGggZD0iTTEyLDEwbDEyLDEzbDEyLTEzbDAsMCBjLTIuMTctMi4xNy01LjcxOS0yLjA2Ni03Ljc1OCwwLjIyOEwyNCwxNWwtNC4yNDItNC43NzJDMTcuNzE5LDcuOTM0LDE0LjE3LDcuODMsMTIsMTBMMTIsMTB6IiBmaWxsPSJ1cmwoI01saGl4bVhtRE01ZDU0OUlxN0hheWEpIi8+PGxpbmVhckdyYWRpZW50IGdyYWRpZW50VW5pdHM9InVzZXJTcGFjZU9uVXNlIiB5Mj0iMjQiIHkxPSIyNCIgeDI9IjIzLjAwMSIgeDE9IjUuNzIiIGlkPSJNbGhpeG1YbURNNWQ1NDlJcTdIYXliIj48c3RvcCBzdG9wLWNvbG9yPSIjZTc3MTAxIiBvZmZzZXQ9IjAiLz48c3RvcCBzdG9wLWNvbG9yPSIjZTQ2NDAxIiBvZmZzZXQ9Ii43NzEiLz48c3RvcCBzdG9wLWNvbG9yPSIjZTM2MDAxIiBvZmZzZXQ9Ii45NDEiLz48L2xpbmVhckdyYWRpZW50PjxwYXRoIGQ9Ik0xMy42MTMsMzMuODk2TDIzLjAwMSwyNGwtOS4zODgtOS44OTYgQzExLjQ4LDExLjg1NSw3LjkxMiwxMS44MDgsNS43MiwxNGwwLDBsOS4yODEsMTBMNS43MiwzNGwwLDBDNy45MTIsMzYuMTkyLDExLjQ4LDM2LjE0NSwxMy42MTMsMzMuODk2eiIgZmlsbD0idXJsKCNNbGhpeG1YbURNNWQ1NDlJcTdIYXliKSIvPjxsaW5lYXJHcmFkaWVudCBncmFkaWVudFVuaXRzPSJ1c2VyU3BhY2VPblVzZSIgeTI9IjM1LjYxNCIgeTE9IjEyLjM4NiIgeDI9IjMzLjY0MSIgeDE9IjMzLjY0MSIgaWQ9Ik1saGl4bVhtRE01ZDU0OUlxN0hheWMiPjxzdG9wIHN0b3AtY29sb3I9IiNlNzcxMDEiIG9mZnNldD0iMCIvPjxzdG9wIHN0b3AtY29sb3I9IiNlNDY0MDEiIG9mZnNldD0iLjc3MSIvPjxzdG9wIHN0b3AtY29sb3I9IiNlMzYwMDEiIG9mZnNldD0iLjk0MSIvPjwvbGluZWFyR3JhZGllbnQ+PHBhdGggZD0iTTM0LjM4OCwzMy44OTZMMjUsMjRsOS4zODgtOS44OTYgYzIuMTMzLTIuMjQ5LDUuNzAxLTIuMjk2LDcuODkzLTAuMTA0bDAsMEwzMywyNGw5LjI4MSwxMGwwLDBDNDAuMDg5LDM2LjE5MiwzNi41MjEsMzYuMTQ1LDM0LjM4OCwzMy44OTZ6IiBmaWxsPSJ1cmwoI01saGl4bVhtRE01ZDU0OUlxN0hheWMpIi8+PGxpbmVhckdyYWRpZW50IGdyYWRpZW50VW5pdHM9InVzZXJTcGFjZU9uVXNlIiB5Mj0iMzkuNTY2IiB5MT0iMjUuMDA0IiB4Mj0iMjMuOTkxIiB4MT0iMjMuOTkxIiBpZD0iTWxoaXhtWG1ETTVkNTQ5SXE3SGF5ZCI+PHN0b3Agc3RvcC1jb2xvcj0iIzQxNDc0YSIgb2Zmc2V0PSIwIi8+PHN0b3Agc3RvcC1jb2xvcj0iIzMyMzUzOCIgb2Zmc2V0PSIxIi8+PC9saW5lYXJHcmFkaWVudD48cGF0aCBkPSJNMzUuOTkxLDM4LjAwNGwtMTItMTNsLTEyLDEzbDAsMCBjMi4xNywyLjE3LDUuNzE5LDIuMDY2LDcuNzU4LTAuMjI4bDQuMjQyLTQuNzcybDQuMjQyLDQuNzcyQzMwLjI3Miw0MC4wNywzMy44MjEsNDAuMTc0LDM1Ljk5MSwzOC4wMDRMMzUuOTkxLDM4LjAwNHoiIGZpbGw9InVybCgjTWxoaXhtWG1ETTVkNTQ5SXE3SGF5ZCkiLz48L3N2Zz4=" parent="1" vertex="1">
          <mxGeometry x="28.630000000000052" y="409" width="53.96" height="46" as="geometry" />
        </mxCell>
        <mxCell id="P5VV7uiac1PhrCfYSXpr-16" value="&lt;div&gt;Home Lab 02&lt;/div&gt;&lt;div&gt;192.168.1.7&lt;/div&gt;" style="text;html=1;align=center;verticalAlign=middle;resizable=0;points=[];autosize=1;strokeColor=none;fillColor=none;" parent="1" vertex="1">
          <mxGeometry x="948.5699999999999" y="415" width="100" height="40" as="geometry" />
        </mxCell>
        <mxCell id="P5VV7uiac1PhrCfYSXpr-18" style="edgeStyle=orthogonalEdgeStyle;rounded=0;orthogonalLoop=1;jettySize=auto;html=1;exitX=0.25;exitY=1;exitDx=0;exitDy=0;exitPerimeter=0;entryX=0.589;entryY=-0.047;entryDx=0;entryDy=0;entryPerimeter=0;endArrow=none;endFill=0;" parent="1" source="P5VV7uiac1PhrCfYSXpr-7" target="P5VV7uiac1PhrCfYSXpr-10" edge="1">
          <mxGeometry relative="1" as="geometry">
            <Array as="points">
              <mxPoint x="433" y="260" />
              <mxPoint x="56" y="260" />
              <mxPoint x="56" y="308" />
            </Array>
          </mxGeometry>
        </mxCell>
        <mxCell id="P5VV7uiac1PhrCfYSXpr-19" style="edgeStyle=orthogonalEdgeStyle;rounded=0;orthogonalLoop=1;jettySize=auto;html=1;exitX=0.75;exitY=1;exitDx=0;exitDy=0;exitPerimeter=0;entryX=0.5;entryY=0;entryDx=0;entryDy=0;entryPerimeter=0;endArrow=none;endFill=0;" parent="1" source="P5VV7uiac1PhrCfYSXpr-7" target="P5VV7uiac1PhrCfYSXpr-9" edge="1">
          <mxGeometry relative="1" as="geometry">
            <Array as="points">
              <mxPoint x="458" y="260" />
              <mxPoint x="919" y="260" />
            </Array>
          </mxGeometry>
        </mxCell>
        <mxCell id="P5VV7uiac1PhrCfYSXpr-20" value="&lt;div&gt;Home Lab 01&lt;/div&gt;&lt;div&gt;192.168.1.9&lt;/div&gt;" style="text;html=1;align=center;verticalAlign=middle;resizable=0;points=[];autosize=1;strokeColor=none;fillColor=none;" parent="1" vertex="1">
          <mxGeometry x="-70.00000000000001" y="415" width="100" height="40" as="geometry" />
        </mxCell>
        <mxCell id="P5VV7uiac1PhrCfYSXpr-21" value="https://192.168.1.9:8006" style="text;html=1;align=center;verticalAlign=middle;resizable=0;points=[];autosize=1;strokeColor=none;fillColor=none;fontFamily=Courier New;" parent="1" vertex="1">
          <mxGeometry x="-170" y="460" width="200" height="30" as="geometry" />
        </mxCell>
        <mxCell id="P5VV7uiac1PhrCfYSXpr-22" value="https://192.168.1.7:8006" style="text;html=1;align=center;verticalAlign=middle;resizable=0;points=[];autosize=1;strokeColor=none;fillColor=none;fontFamily=Courier New;" parent="1" vertex="1">
          <mxGeometry x="948.5699999999999" y="450" width="200" height="30" as="geometry" />
        </mxCell>
        <mxCell id="P5VV7uiac1PhrCfYSXpr-32" value="" style="group" parent="1" vertex="1" connectable="0">
          <mxGeometry x="-330" y="590" width="60" height="60" as="geometry" />
        </mxCell>
        <mxCell id="P5VV7uiac1PhrCfYSXpr-31" value="" style="shape=ext;double=1;rounded=0;whiteSpace=wrap;html=1;" parent="P5VV7uiac1PhrCfYSXpr-32" vertex="1">
          <mxGeometry width="60" height="60" as="geometry" />
        </mxCell>
        <mxCell id="P5VV7uiac1PhrCfYSXpr-30" value="" style="shape=image;verticalLabelPosition=bottom;labelBackgroundColor=default;verticalAlign=top;aspect=fixed;imageAspect=0;image=data:image/png,iVBORw0KGgoAAAANSUhEUgAAAHgAAAB+CAYAAADvPdXPAAABc2lDQ1BpY2MAACiRdZG7SwNBEIe/JEpEIwpaWFgcEq2iaATRRjBBVAgSYgRfTXLmIeRx3CVIsBVsAwqija9C/wJtBWtBUBRBBDtrRRuVcy4JJIiZZXa+/e3OsDsL9nBKTRsNg5DO5PTQlE9ZWFxSnC84aaYDO0pENbSJYDBAXfu8x2bF236rVv1z/1rLasxQwdYkPK5qek54WjiwntMs3hHuVJORVeEzYY8uFxS+s/RomV8tTpT522I9HPKDvV1YSdRwtIbVpJ4WlpfjTqfyauU+1ktcscz8nMQe8W4MQkzhQ2GGSfyMMMSYzCP042VAVtTJHyzlz5KVXFVmjQI6ayRIksMjal6qxyTGRY/JSFGw+v+3r0Z82Fuu7vJB47NpvveCcxt+iqb5dWSaP8fgeILLTDU/ewijH6IXq5r7ANo24fyqqkV34WILuh61iB4pSQ5xezwOb6fQuggdN9C8XO5ZZZ+TBwhvyFddw94+9Mn5tpVfBqlnuvmtyXQAAAAgY0hSTQAAeiYAAICEAAD6AAAAgOgAAHUwAADqYAAAOpgAABdwnLpRPAAAAAZiS0dEAAAAAAAA+UO7fwAAAAlwSFlzAAALEwAACxMBAJqcGAAAAAd0SU1FB+kGFhAVIvleGYkAABORSURBVHja7Z15fJTVuce/zzuZJJOEAFExRAEBF0TRKypVAaEW6oZ663b99Fbrp4tGe624cVtFq37qrVfvx9YVrL1ab7XubVVupSq19Vor7mypiBAWCYGE7GSyzLzP/eO8gclkJplM3pl5B+b3+QzLLO+8c77nOctznvMcwUWVvVxmIVyiokchtCMEEdrU0jqEWhWtE5EmoLlpblM3OaVcea5eTVGEU4ErAY14dAG7gFZFdyJUly4rXS2WrFLRzxE2tcxqacvhcF/i9gXLXin7qYregjhXF1BLzd+ie54TRSwJqehOhDUq+hcR+auKrmqd0dqYQ+NFCzba2dugxdiwxP3+A53HaUArwsqSd0teEpFXsVnfOr1Vc5iSl5WCa9Y7zfKg2wlFhwHTBbkP+JP69L6S5SXHFv2tSHKovAN4G9AxcN8gA3UYE4D5wCvil9tLPigZl8PlDcBbgKakennd07RHaCzCbQivFH9UfEnxR8X5OWyZBVwH1PSCprEH3PGsWmLXimOAxxDuKfqk6KAcuswBbgU2JdVED6wS4Frg6eJPi4/L4csAYG3TELBmIIgqugsIxZtOx2q6IzRL0SeLVhTNziFMM+DGbzYq8AHQGasf3t0Mq4SBzb3eNxjrFqYgPF60quisHMb0NtEgrAa26Z5RUyzrLAX2AzZgvFyDbCoAGA88ULS6aEYOZToBKzXA6gQscThwMLAeaFTRQdQh6akwE4GHitYUHZPDOdDM00WNXDLyJoR7drsord6uSoTI53apaBXCGCzKI92ZEW7NXv/v+XzEe19HuDQ4ObgjpQW2SywR2V9FxyKMRzhYRfdDyHfuZSfCY1g0eAFwXqourKJvClIHHBBpdbub6N5Vqxg4CvgEszAxNtFquNsdCnOA+YVVhT/pmNzh6kqVBEWsbutgFT0VZY6iUxHGON2ML+pe64A/wF4OWFQ+Q1gOzOsBpL0742hwRYJMVdXlCB3A4f28t3dl2dPdXO1858tu/AZfi0+wOYouLkU4Fzi0p8xEnRal773YKev6PNMHA43zGoMISwA7UUcHEEA4yZlHr9htvYl3JMOBHwc+C5QPuebvzKuQkNyJsgRYAEyKNIh+xgs2EN7rATtaCnzeAyhB50YhMBOoBt4ZyBMmfU37BIRLA58Hkhpf+Op9Vl593teB54GFCOMSdtSYp9qcxz4AWNiM8GyM/jIRyKc7U6jXYiOOzwi4EuWIwd6uf4c/X1QqgacUnZ7ANK3vc0oj0L5PAG48s1GB5xyHRn9Nc6zXAsCFwAaE56ObvYhpUp/BmKITVfRbBesKEv59/u3+IuBHwD09A0NF41et+PV0c1Lz+ixtogHWAU8DmoT/uQi4HGUj8DjQnUhFcXSBqIxJqL+tzfMD16Pc4ozoB9OlRGsFFt37DODGMxvDwC9x/NNJqBi4GvgCeADoEoS4/brufu5whHMJ9k/Jv81vicplKAsQ8ofoKegEPt77PVlRajqjaaOiD0ZaYCzr6MdihgE3AqsUvQ/oEpXYfaD0+m0XFmwtKB2gL50F/BQYFrdfHaAPjmhN1jlz+X0LsAPvOeB/+y9r7a/5PQC4Q5D/U/QeRTsT+Np/AqbEezG/Jv8A4FagfNC+vtjPLwO275OAm05vaka43WlqSXjq0VvjgJ8BSxDuJsZKVFQFKRVkbuEXhX0unP9lvg/lSkFOHXC0rANWXhzP1Qv4sPdJwABNc5tWINzZ7yhTY85tI3UMcI+oPAPcRYz4r8jPKzoHYXgc675aUd+Ag7YB6p3z2T8CH+IxZcKl9jzC/cRZ7E9wUHMqcBuwSNF7MP5rYrpEjQdqQq+B1Ra/HxOcP7pPpUikH+57j9tFZRF5dO7zgJvnNHcC/4nwZHTRxbWi2J6si1GuAu4Fp8JoXwsWZARwbJSFHwOcF8cT1vf//Vc6G1gELMeDyohTvPlrzS3ALcBLCTg84k5fEW4QZC7CnQiPEtsHbAHTCqsLLYCCTQUWcDEwSkkypr73x94AFmm+hnOAIyGf1rwduAb4bU+RJeFYGA7coarlGL/xk0LMVYBjVbXEscjRKPMSmf4MOE1SqoAF5LMDjyqjy1rNX22uxURJ/kqQ+HPk/rlPARaKSqei/w48G22Zih7MnnXpmQiHGV+J9J2aScJjgg3AD7VAV+JhZXzdsmV2Sz3CDU5we1KL5IJcDJzXcWRHPXCjIEuj3lAGVORvybdQvo7ij+4KBtl6rAMqNaDL8Lg8sTDdcmpLK8K9wHeBVUlcIqDojYGqwEHBScEazJaXDyJfBw7BZn/g5DjTqUQHeO8Cl9lF9htkgTwTedAyoyXcMqPlD8D5zqi0JQHnQiSYqcA3Cz4rkOARwbVO018d8TvHAkc7zhLMQpEOxnKDwBPAt7RY3yNLZHnthlqnt36h6HzgMozrryvBiBABLhWVCoCOwzv+rqI3A83O6+XANMeaY4YA9aNVqlopKj+wS+xqskiWF2+q7ZS2rtaTW18GLkT4noi8TQI7FhEmA3MjoL2I8HPARqhAOTG63+3P/61oNXAHcJ493P6fcGk4GPFyASbkt5zowDsPKSv23ZZ8UFKGMFNF/wVhtoqOjhE22xOG+7QglwcnBUMAhesLy1T0aYQKFS0QkSPihvGabASdTsaBF0Xk99Pembb23XPfjaZ/HHCG4+TwOZXvBczOyhzgZFX8UXE+whEIMxHmqKXHqehoESmIiJn+h4jMDk7aEx9dsKFgGsJvEA5ByI8BuAVhI8Lf1NKlCMtD+4firQodDnwb+NwZJ9RjAhNOBn5B5NbZHOAhwF5RnK+iB6voESJynIpOxmKsomERuSw4KbglArDlTMOuRWhX0RYV3SqWrFfR1QifIKxTW3eEKkI6QHldgVkRmwX8AzjBcdZMAbY6nq0cYLcVqApYCEUIxUBDcFKwd9iMBobRbo8nQBsiLWC1IO1dSYxZbgJeBK5ymmcfcDdwmDNS/42XyiVvbwEcnBy0iQpZVfA7HqxyJFiO2V/sB7q7oS0M24JQ8znUn5RYLLM6169wRucfAjMcQxnjNNe5PjiVcqAegcnacypmS8yBmNiuPKfXtYGwQpvCtjCs6IQ3G+CtQ8aziep+VyGmAJcAa4HfA5Od7xgHPOg1yLKXgT3FGQCd7lhZop9Fwe6G9c3w0hfw1PT4QYLiWO3XMNkM8pxm+kVn4JVTCuAepvCQwk4FHcojBNoA69+HBfdb7N/P15Y6LcVEZ06cUwrA+hTOVVgxVLDRj1YIvw9LHhWm5ko6M3DzFa5WqHMbbs+jHfQdoeoRi9MpIJeMLc1wFyi0pgpuz6MN9DVh40MW33hCsg+yLxvhAtcBPyFim0mqlA8Mh+E1MKNV2HgBfPZKDnDK4BY4cG/DuAfToiIQhWE1MDMsVJ8jfLZEc4BTAXd+uuH2zItKQWuEYbuEmQLV87IEsi8HNzH5QbpBvxRKIXsg+3JwE1cBsBHoFkrFZCHY6HXIviyAe50X4DoDLtkm0CSImB2PM7wO2ZcFcG/1AlwwS0nNQI0BDAaypy3Zl4M7OAVBNgK6Zw+6pyFbObiDUzHOdsTeGo1ZSTp/seUtZ4iVgzv40XScZq8H8gVegmx5DO71XobbMyeW+DuWRmPyiHgGsuUxuAu9DNe51y67/+gPT0G2cpY7OIWhNTxweI9nIFseghsgC9QOTSESysPhCchWhuHekE1wgVAD7FTBnyCxjA+8rAzDXZhFcFFoqJHdcViJqtyBfGEmIFs5uImrG9Zsh2TO2St3muu0Q7ZycBNWcDMs7xIOSZJQRiBbObgJ68/vCZ1iYqyTVdoh+9II98ZIuDZoB9i7gBboaIL2NmjuhB0KO3zQapnpSIEHpnPbm2HhRxbnW2aLylBUgvFdb54nVKXady1phHtzNwQaIFQD7BCsZgPZF4JwGGyFkECXD5oLoWZ/qD5MqRsLB/jgRExCs3QvkHQANz1q8bHCEoGRLl23JwHNC5U2mpWA1WRuv6ELfrwJ/GvNMSy+TsHSBG5AzXxzq09Zdii8PlspsOBM4KtEnOaSQnUC9+6Eu16wuEvMnN1NpRyypBBuvsINtfCjj4VADeSF9qyjJnPqbE0YHh2j/OpcZTRwEXAuZndBKprwJkz29/sfsRjlM9tCD03B99Ri8oW9lArIVorg+rrhe2tgwZvCsM2CPyxIxIb8QddCgYo8uL1GWPQLi0Yx6ffPAH4A/BV3z0n4GPgOcK9Auw/OISrfpYsqB35OROoJz1twEM5aA49/KhzYLSn5krcVvn+VbTZ7KYzAhM/8M2ZX4SFJ/DabPccPPCnOOROLLcqAVzEb21KpNcDFlTZVngbcDeNXwoufClO7JKWd/B+B71TaexJwqxmATXAgz8YkIR1H/EWMDkwC748xRwC9LiaubrcWW5zvQC9MQ5//IvDdSrv/FFIZA6yQVwU/+1i4sU1SPkRXTKbZhZV230Mw1LgTR2HSCU92QI/APF+PSZiy1rHaL6UnJXFvuAWYHfsXpWnE3gVUVto84UnAX8KJHwlLaoRRaXLVNAIXVdosG0StEEnwHKbFFscCf2Jozo1k+v+zK21qPTXIsiGvWri8zlhNujQS+LfFVuJ7lAYBVzBTsnTCBZPR/hzPjaLXwoRamNctaU8bcBrGCeK2SoGzM+A1y8O4Mos9BbhWOK3VZH5Lt0qBbyy2XJ/yTXT67kzoBOBIzwBuAH8LzO7OnM94FvSbbiEZHY97bslkup5pngFcBWW7YIotGcvqMoHI84aHqMUWPuAkMpekRoDj3WiVXAFcJxzYkd7BVbRKXG5Oi2Dwp5emoNIWegJwO4wKmUImgzX+cBfXWIeR2QoLcIC6UKZuAQ7Ymc+aV+HioLGQzIfwFokOPT2TKwViC/lkPkFJqYuAM/pb1PxhuTGkcQcwdCjYGSYcBNeW29rIfFrgTive6XDpBmz2RCeQkT212kFiCUUTUQuwLZM/xoJdwxj6UXluNWm17DkbIVPa4OKCeQcmF3QmR41b85VWrwDeQdQyW5rVDqxw62JORfkI0n9UrGJyNvmg6kSGflS8W4DbnALJlDaDuwvlmMMmazNkvd358N4YF8YUlos1fhmZ64c/BepcvmY18E4mfkwerB/R+2CvjFtwT42vykB5hIHXYy36D7HSdgLPprPSKmAZ78bS45UarwGucwok3WlINgB/TtG1lwFvpfPHBKDuIOWZ0S71/5aLNV6B54DVaQb8BvDlAJZRpFChcLTCSQpTFQ5VKNN+ysCJjboPkjs0c7DWm6dwkPLSV0yX41Zz76q2YM4OeoT0ZEFvxcQTh6MKSzAnoJyAibbsObNwOMYNGXJG3tuB1QrvYQ7Y+Fz6npn4F8x+oltJ0a6KnpHzGFh3FDzkjxEfNoQBm7tabFECPIw5ezDVeg0Tk7XLKSgfziGVwFnAeMxZDomowZlqvYqJw1onzjRlkcVwMcfIfzsVcFEYBy1TlesOhCfExW4uJd7FxRYTgKeIOMo1BerGhM0+taeMuAb4V0ww+VC01el/nwHeFWi5z+KAAPyXmOv7XLRcnQgdxymL9oOFYlyueBqwA3kq8GvMMTSp0CcKZ1ba7MCcgPIfuB+btQvTfD8LLH3Qos0H8y344VA2oTmnvFCodE9RQpPh+SK4XlLQ16dsp94SZds8YQUmMmJUCpq2hycrS8fBxZjzhiel4GfkYxbezwbO/IpSdozy2np4q0MYrmaJ0j+QpWjUv/1KaBx0TVf0MHg5H24S9+fxqbXgCEs+Bfgl5vAot+Bu7Ya519hMBB5zoUkejOqB91th+ftC3hY4vkM4Wk0lLohVpmKi8LUYwhVgT1S0HHx58BIwX1LoMUvLCp/bkG349eU2DwRMH5mp0BoFasOwqQFaaqGgURgRhJEhKBYo9EOgEEKlilUGUgYUsXud97lUw00bYAfyyY61HTXEUu0qViovVeY4o2WvyHamX7ZtytUnkCexK8bz6YDrtidrIEfI34HvD9URorD+NGUEZiehl2Q5fXahBQVWfLjPAddKmhYy0hrH7EC+IlnIzshz5WhzNqHn0x7GgTtfYHs6ax3ZAlkhdAi0W8ZDlYPrRcDJQnamGq3jlVFAWQ6uhwEn2yfnKbtGmoOYJQfX44AdyO8NBnKheeyXRXCfzSTcjAMeDGQ1XgS/ZXYdZAvc6zIJ1xOABwM5z2TJC+TgZhngKMir+nlbgMxvkckauJ4CHAH5iniQw2DZGQhlzaY+19OA+4MsmDCHLu/D3eGlG7O8WFrxmutOsNrTH9SXCNxnvAjXs4AdyMujIXeD7PQm3Ou8CNfTgKMhC2b7Yq1g296wYs/D9TzgKMgrBdgGVpt7uwj3arhZATgC8hXAyjbI25TZsZYCv80GuJAlR7wDLFG2niN8YgvT2qF8PIT86b//HrjXZwPcrNQii2mLhE8/gHYbwgqapoet8JRmPjnL3q+HLaY9KXy4GTpzcPdSPWBxwu+Et+shlGK4IYX/1vScEZFTpO63OPI14Xf10JUiuK0Kd6vZ05SV8mUz4KVK/bEWy2zoLIZJAShxcVqwGlgAPCLungeR02A11YfvNWF6NTzTDo320Kx2o2O1E3Il6zE9KBRWwawGeKAT1oTNSFsHAB5W2KnmoI+bFY7ULPEPJCLZK0n7kI1hxo6AEwrgJAuOyoMKMbkf/U5OrwZMdoBPgfcx7tCGva0o/h+NBl6MjYRSNQAAACV0RVh0ZGF0ZTpjcmVhdGUAMjAyNS0wNi0yMlQxNjoyMTozNCswMDowMHnR4CEAAAAldEVYdGRhdGU6bW9kaWZ5ADIwMjUtMDYtMjJUMTY6MjE6MzQrMDA6MDAIjFidAAAAJnRFWHRpY2M6Y29weXJpZ2h0AE5vIGNvcHlyaWdodCwgdXNlIGZyZWVseaea8IIAAAAhdEVYdGljYzpkZXNjcmlwdGlvbgBzUkdCIElFQzYxOTY2LTIuMVet2kcAAAAASUVORK5CYII=;" parent="P5VV7uiac1PhrCfYSXpr-32" vertex="1">
          <mxGeometry x="9.530000000000001" y="8.5" width="40.95" height="43" as="geometry" />
        </mxCell>
        <mxCell id="P5VV7uiac1PhrCfYSXpr-35" value="&lt;div&gt;1001&lt;/div&gt;&lt;div&gt;Pi-Hole&lt;/div&gt;&lt;div&gt;192.168.1.100&lt;/div&gt;" style="text;html=1;align=center;verticalAlign=middle;resizable=0;points=[];autosize=1;strokeColor=none;fillColor=none;" parent="1" vertex="1">
          <mxGeometry x="-350" y="654" width="100" height="60" as="geometry" />
        </mxCell>
        <mxCell id="P5VV7uiac1PhrCfYSXpr-36" value="http://192.168.1.100" style="text;html=1;align=center;verticalAlign=middle;resizable=0;points=[];autosize=1;strokeColor=none;fillColor=none;fontFamily=Courier New;" parent="1" vertex="1">
          <mxGeometry x="-385" y="704" width="170" height="30" as="geometry" />
        </mxCell>
        <mxCell id="P5VV7uiac1PhrCfYSXpr-40" value="&lt;div&gt;1002&lt;/div&gt;&lt;div&gt;Portainer&lt;/div&gt;&lt;div&gt;192.168.1.99&lt;/div&gt;" style="text;html=1;align=center;verticalAlign=middle;resizable=0;points=[];autosize=1;strokeColor=none;fillColor=none;" parent="1" vertex="1">
          <mxGeometry x="-130" y="654" width="90" height="60" as="geometry" />
        </mxCell>
        <mxCell id="P5VV7uiac1PhrCfYSXpr-41" value="https://192.168.1.99:9443" style="text;html=1;align=center;verticalAlign=middle;resizable=0;points=[];autosize=1;strokeColor=none;fillColor=none;fontFamily=Courier New;" parent="1" vertex="1">
          <mxGeometry x="-185" y="704" width="200" height="30" as="geometry" />
        </mxCell>
        <mxCell id="kRqwa3o0PPWYJBAYLQpp-4" value="&lt;div&gt;1009&lt;/div&gt;&lt;div&gt;n8n&lt;/div&gt;&lt;div&gt;192.168.1.95&lt;/div&gt;" style="text;html=1;align=center;verticalAlign=middle;resizable=0;points=[];autosize=1;strokeColor=none;fillColor=none;" vertex="1" parent="1">
          <mxGeometry x="105" y="654" width="90" height="60" as="geometry" />
        </mxCell>
        <mxCell id="kRqwa3o0PPWYJBAYLQpp-5" value="http://192.168.1.95:5678" style="text;html=1;align=center;verticalAlign=middle;resizable=0;points=[];autosize=1;strokeColor=none;fillColor=none;fontFamily=Courier New;" vertex="1" parent="1">
          <mxGeometry x="50" y="704" width="200" height="30" as="geometry" />
        </mxCell>
        <mxCell id="kRqwa3o0PPWYJBAYLQpp-8" value="" style="group" vertex="1" connectable="0" parent="1">
          <mxGeometry x="120" y="590" width="60" height="60" as="geometry" />
        </mxCell>
        <mxCell id="kRqwa3o0PPWYJBAYLQpp-2" value="" style="shape=ext;double=1;rounded=0;whiteSpace=wrap;html=1;" vertex="1" parent="kRqwa3o0PPWYJBAYLQpp-8">
          <mxGeometry width="60" height="60" as="geometry" />
        </mxCell>
        <mxCell id="kRqwa3o0PPWYJBAYLQpp-7" value="" style="shape=image;verticalLabelPosition=bottom;labelBackgroundColor=default;verticalAlign=top;aspect=fixed;imageAspect=0;image=data:image/png,iVBORw0KGgoAAAANSUhEUgAAAfQAAAH0CAMAAAD8CC+4AAADAFBMVEVHcEz/bVqwX1o4TVs4TVs4TVs4TVs4TVs4TVs4TVs4TVv/bVo4TVs4TVv/bVo4TVv/bVo4TVv/bVr/bVo4TVv/bVo4TVs4TVs4TVs4TVs4TVs4TVs4TVs4TVs4TVs4TVs4TVv/bVr/bVo4TVv/bVr/bVo4TVv/bVr/bVo4TVv/bVo4TVv/bVo4TVs4TVs4TVs4TVv/bVo4TVv/bVr/bVr/bVo4TVs4TVv/bVo4TVv/bVo4TVs4TVv/bVo4TVv/bVo4TVv/bVr/bVo4TVs4TVv/bVo4TVs4TVs4TVs4TVs4TVs4TVv/bVr/bVo4TVs4TVv/bVo4TVs4TVv/bVo4TVs4TVv/bVo4TVs4TVv/bVo4TVv/bVr/bVr/bVr/bVo4TVv/bVo4TVs4TVv/bVr/bVr/bVo4TVv/bVr/bVr/bVr/bVo4TVs4TVv/bVo4TVs4TVs4TVs4TVs4TVv/bVr/bVo4TVv/bVr/bVo4TVs4TVv/bVr/bVr/bVr/bVo4TVv/bVr/bVr/bVo4TVv/bVr/bVo4TVs4TVv/bVr/bVo4TVv/bVo4TVv/bVr/bVr/bVo4TVv/bVr/bVr/bVr/bVr/bVr/bVr/bVo4TVv/bVo4TVs4TVv/bVr/bVr/bVr/bVr/bVr/bVr/bVr/bVr/bVr/bVo4TVv/bVo4TVv/bVr/bVo4TVv/bVr/bVo4TVs4TVv/bVr/bVo4TVv/bVo4TVs4TVs4TVv/bVo4TVv/bVr/bVo4TVs4TVv/bVr/bVr/bVr/bVo4TVv/bVo4TVs4TVv/bVo4TVv/bVr/bVo4TVv/bVr/bVr/bVr/bVo4TVv/bVr/bVo4TVv/bVr/bVo4TVv/bVr/bVr/bVo4TVs4TVv/bVo4TVs4TVv/bVr/bVo4TVv/bVr/bVr/bVr/bVr/bVr/bVr/bVr/bVr/bVr/bVo4TVv/bVr/bVr/bVr/bVr/bVr/bVr/bVr/bVr/bVo4TVv/bVr/bVo4TVv/bVr/bVr/bVr/bVr/bVr/bVr/bVr/bVo4TVvYEXD1AAAA/nRSTlMADgHI9Sik9v4C+WQeL+38+7f9A731RAVAoBxqbVXxySBs8wruRA0KBAgCEfj7Dxro8ZcR6xPv+NeLSReu/jIJJOGsZeu7SBVw5EsTzqLZhh4DnJjLNwZOtBgrYKMV3IPyVN3aF2dhKy8m+Vs5bcMEftPcwyni5uSUsakdFk6nDXsIPtkitqxLKO6m1yRpPFFVsIWCcOqVjkeR1aDJW7651Q+eOD5e6LoMwcbvMuC8iI9Yec6Je3OjVxDBmY02YsuA3i1z9niRUr+2Qr9ZQRp1dX7HM5PRqyE7IKafQePQdFDdrrRGh4s5uELSHOB3NF2bxDuMLsypnLLFf0wsgScx10UAACAASURBVHja7J3dS1tLF8ZtbgXZRPwDFEWR3IgKIkg4hdxFEIRCiYpgQ63glZKCrago9BC0aE1EMH7USlEqKF6EFtSDIK+0J1gsKgiKtdYYrNZaWmxru3lLj/Zzzd6TvWfnQ57fdSYzWU/27Jk1a61JSAAAAAAAAAAAAAAAAAAAAAAAAAAAAAAAAAAAAAAAAAAAAAAAAAAAAAAAAAAAAAAAAAAAAAAAAAAAAAAAAAAAAAAAAAAAAADQRVZ+2+fdt/de9r7dHam+dvMSLHLuudve6zm2zW1USEUb+666hubGq/mwynmmfLx/ostX4MoxF0myXGSWU7xV/4SWE9+uwTbnk+zXzuKhSplgfj90kJELC507Mk+Ce0UyG1dx4BWsdK6wLriTZBVqQh2LsNS5wbRenC5zYN5+mAlrnQ/WuvdlTpL6RmCv88AtmyTzM+THwx73ZE1dl8Ni/rgNVotvFvskOVzqnsBu8Uz7Y1kDQwuwXPxyzydrwuWE7eKVmSFZI+lQPV63aj5ZM0kPYb945FFI1kFFBiwYfyS7ZV08q4YN445NWSfFOGePN3bT9IouH2TDjHFF5nvdmstJL2HHuOKOLIAPl2HIeNqhpyifobqGjgYGxlbmLMqqY7ceR5i6FJSUfNP943ezvjLa/vzT4AOFj1Zdgy3jhgD7lCVt+Pkv0XDWkTsbbNWbs2DMOKFlkKmiLePPOPf6HubHN/6GNeOEkxrWenxzlPTjvGxlqf6lBeaMD4YZCu4x92CL24wm70tgzrignhESN3Sb3aaJoboFBy/xQYeZ1lwx5vHCB1r1skcwaBxwiT5d++tEuVl+Hf1KwK4tHigh0xrmD9TajeSRqs/CAx8Jsi9ZMy9opqWTdLO9uKnWbfIUKfokQqKNxtrUtuAvDe3lJWnFO09uuBvV+758RO7sketkKE1/d/YNyYbQx+FaMzmoFeDGTDKUMWz91d7pnpcNwtvJM4QbK1TbBczvRj3ku0t7snHYLvAMIjNItU28CXmMIHOmdEM2kgm+caxT/tsvIzh1MYC1ib8MlZxzdk9IaKui3DMezO/CuTu7IhtM6zu+oZSvEo1DwSaIJPoxLy0yWnPZN8r5mpmgRJ8ehUpiuf1RNp4Q72icVAB82QXIJNT51r8fAc3lQd7xzFLZjCsIgBe6aj9Ik2NKdAfR+LodoovUfEKODCE9T3qBDSXmBPrgghHSXB7jHFEWdeZiW8ZCThimKSlSots5D00evcHq3VgSkyKluby/zjekV1QgxcVmOGdEsV4RMc1li59vTNVeovFyJ6qDC2LRJkeQMu2Ld/mgGmergiiNpOby3jjPmHIvUm0P70ItMTjSIiq69IVnUCNUXltRIfIdxHDlmRxZfPXqg2pZplquIBxWEBOKhyw5R33dzbWziZpwFEsaH/WRHLIKCTzvYni7pRTl4s+4lqtj7TReE36qw7fZ5wU5HA9CKMSwzH75rhbqvWAhl46t7CpXaddMlxFEaTExjFQxV9mHAvzc0/R39yhvtx10VYoxXPIhhm4zq4qXkHTwDFo+S7NJoVGhl1GWAJ4ZIVxjLd0nxPg7RwcY68MgOxnRyagK792FXmL26Ayn+44oz5ef8acqWmXU72+ZYFUcasBZuhAyGTUDdoQtk28UMNcMTiodsZd54YcFpeTEcJWu6/dB4AHmF+buIMV26/cPzzR4mR+PtQc9OyvTarVmWrMidByQbf3WX0u2SecXBe5T5r0/LnCsi3MKd7QcbbZ/f9yzbwYeK9zeZY6h/dqVz4Eld11BzoOvpFd8vLjU/+6KgVnUTWsjqcuhI++3/h74bEHPSJt2N1V2kPLGSU+FDrlZ0RGf4jv29/f3BxJ7jtIVywcWx0gZClO1o7RiXvrlJSRJNftu57ghm4tXhd1j6TXSz0KZzZbKup0TjZca0XU+nok9yjLZlV3xRVLNV6NJKhH3rpmYkLytw53EWnQkPfaLPhuwFk4PsSwjVQVvafmbtZMbtmbBI98VEYrljwXJdycLzIqjnCt9LbC7u05bjmJ3KTZP+A60EypvrUJ46d1uAfWAY6AcQbXby1GuuvidqKfcaa9RP6e214brUHFQpV0axC9EdEfmtEbfLzM64eUba0pQyDYjo47TNnWF4X0xVZRbShVvsHqdMXg5s1HX/KSVf7gVnbqX8ouTZv6ow56wziSo45CkcQNM9tyiL6U92jGwi9PhFeaY1Pc2MvXaw+qu4Bb/3t1UTNV4M2Tj4dSjuTvaL/SZunCH/FHPjdCZm5XhToVL3BvaLOoSpQpj7HagXfOGaGu+MBf+oPP6NU/xN99oqd7EayTy5qy6hBhTfTXamqfmaIr/7NDoni35oC1HsF6H6MUJsaX6i2hf3uLRGiycqkn1km2N3dn+1i56n2HWC2h4YiyT0Y6F9KRofi91aJjh17Y1dzfI5Q/M347kk/5162kP93e4PNHeqnWk6FiBOsM+EFvc1tGdjccbX+/TnnWkzXPtrgnrV/iifrL20CvrIdwK9Y+O9WWMlat3cYvywk4aaUPTZhhuGm9pW7Q13y3Q51W6Hp7TI0uvw3rHqv66otolGuzAPnZxbj0HG6MtecKNLt3ZPGGdWC7oPZqqCaiu4/qoWIVeoy3ZuJ2uPvpKuyP6hUayPuk/KeoJ47XeVqC7uwK1+6dnqEwEyfhd8WhhmUv5L31/zHEjIfoUuvSLXrPAb5dhAUfQavdPk7N7eiSsmT0T9DENmr7nLoyJupAlIXUPjPqZwsoV3v761SVVdxlIDuXJ5F8y4yhCFh096Rmr+GPjnrLha3DEylW6qYrTUZJ9u6/001Rp3wd7nmLUzxJnd+WKG1rLlq1heNIzfbw6UKF4+ONT3K0/pXMEI2dU0+vE6YbH9pX9vDxvkmvFPrD6pjYjdgoJ1SvcAJ7zPnh49fRkKvlzYKJO4YRkizOqYlNByf3izYyzebv8iad4X+H/eKAQvn6bzi2sjrBprVfHXwYCgf7n49XlCTGFXyFKKfE3M7U7u9hOnDd8xyzsgutVwd5ffXvJL3fYZ0BD7ew+3HSQF5KBzx50Zj3sVv8aMTnXMmfnvHZdRxMpZU+Ij68PM53afpaGLTt0gztQ+5Ralk27GJdHjpexXu3dHN01eZmeaHqr3+RkFeavYiWMfaKXnUXIETxzgo8xVsfLzD1teZDhZN7iODQKMBS0s11Uhay5pZP8eOYSY3j/oiDjKSeMx7ZZwdF5qZteX0n96v0xYnOOlJ7CGUap9m0quqyth7Xo74Dap5Mno0BHqeKa59Ik/VcZUO3vGv13aVU+cRphRGv+ebLessCM+Npvh9yny3HaI/pYxV85ukrv6UvU+lsi2z1QiwJ+SG8VU3/z/ebecrOdi80myP0fz8knz6V6aFZNPnsWp1o7eqKeVI3CoBMFn/08+9yY8XQp3L+1hQf97NGY0Oq5ekqukJ85UpVwbpL7r/fqoTAl5L9F8necfnPHVM/AkGIciAdqn7I2SNlnjMNBnEln8zxIUyKHlMXMk793SHsMK0+/uXJeJTHUh+sNzxzEveQr/ZCnbaKm2Fly5V7C0d1iSFcfZlRp+74e66ZcJXaut1/uP4I0l6a4xqorjUQO4kb6M/JXqfl2mi+5alrQJRlDfI6ycT334uJu8h+8ovzuUoCvsYjQi2/ZC3wHUI/6tHfhGofWP7xX1Hu5ivOI9LKYK6mlO3z7Z5P2hDFLI6T+QT05FXKGwLSEhIiezpuefag1A0dKhNJqors5A1tNb4S81Pd5I1TZ1X1VQNVVddGneZPkJ4WI3vqWs7t3dm0d7KB4vrroHIkE//E/MaLfNlT0ykOEy/CI3hJZ0Xmf9M+aRM8phMwcok/yTu/BGhGiV/HWsqhe0fT9aR04XVMXfZUz5SZ72CxC9OsnnIPN0HgDusUBodW3bJzRuk1i/LDpTs7BHmpNpk5CWe2fWaOcavuchUrbKoSIrnblyRnJXzT3kAeH3E8sknkOs3wvwU6vGNFtfJk++W7tXezB9f6TIYupMKRlvpVcaZEY0ef4vDPrG3rSHa0Q+7sntZayZMVnnrYlQ6LO0/lyEPy6+qjFEv6Ha5M8NPHwWOjAIkr0MZ5CHG1juvpIqYfY31dyZC23rRL1lnTuaVFOijJkVMsBx0hn6aQVbtW3McF/33bRIclL6q7LO9QmvajrXoYSTxrJM/g99f1CPTklWZb/z965B0V13XFcaNoxQ2UIzKqdtJ1BBdYVneK6CcFSKrhJk4iD7nR98CgRDZKUNBWytrCU17YihbgCS7blubg1WomQHePAVEidwdAoxUKUqR2IvHUUFB2jJDy2VnYt655z77n3Isthf58Z/3Bn717u+d577jm/Z+1nU9Qq5DpmA2ELqP14fkdP0p2syyqkpUTEWo4CHU45wrZrS69FP77TgqBccoIUTJnNpTtAbev8jjZof8pSFSUP/YZVsZbrRadLerDEw7ruQRv/nrS1tXrH4K2EkNVkxQ+T1dsbzbzVwxzFvhQ4gb5btMwWWHSvyib7CE4X0zp41Nnnd8yjUcKgevQD/mFJFZPcVffBJCvnovyBDdhlfhmobZ0RcS1IUrCB0BpciGIlgUG1G+d3uY07WImtSI6+x9RRmK93gGedeS/0v+kwCGmZkxjLcQkFJJlDmbh2IQET6I1i6wQuq2ITJphPhlHdfy+obX1uS7F+ikGN3dPnmtyGjXzuImqxUoddaZWn2deGUwd9jv0+1mWKKTkzeRXUZl5QT0W1ZCTbvNoNyUWXhZpTj+E9sk2Hg25On4LFET6j+OSpQHzaYwL6vV4K8/vjR72cwaRxtKOlWhOdLhH7qTXVWgVTv484wrLGLUwpZ+0XjfGtMrGXWNqac3e4nSk2x43BWDyGno4iZmK86tWtCTk5Ock71AaKDfqRLGbrrzqKTW21oaXMGYvELc+iy1lCafpy2zImwj9ncdfLmV4mysGnslWXJhjLTo+EVgTGZWfH9YUqrrYYk+vpFF0aNSNuceLCxvqZcNX4dzOeYy/SbNshYJS8IvRFJaVPmvz8N1UVBalpzI7UnxUuworzxKfL/Gwm4m1YYnaRha27+M/pxm+wRb1PhH7TKaNP9SLhwcwZHE4XsUnw6T5lc5V2Ig06PLVRN4czp9f0RLlFUDfBhwsVYTSTy/nOrxA6r7CG0B5LQa07eLUOVGtT2P9e0fVI2mKyxpOEiVCZw+18icKmlmACM5AJdRyPaGjXsVyyPpGxowcy6VLdmC1EhLhOjqcT1wgSnSQfoxm1ayvkPDBXBo6SR92eSaBL9TQBi7kV3ZxPZ1AI0LyKpGhQNWrhwLlF14ELnP6ydi1dC/m0Ht7xZ3y2v1L+qpP1Id5RIVz0kGGuIbgBE3Tt29N4Ji/oini13ZTxVT2czPKnRK3kuHVglI1wz9YLLqFrih/jVU+kJ42nMTK6mFcunIJwkSwR3Gs1j196Rd84VaobL3C/xHb+iWJSE/edm6iQtAggssGunMOfl1POcyqqoCvcOp5zR/NcIReobOGaMNFzm7iUCFL0bPI/Lpl/oL08hyrVpYmc6oSdLRJofrzVwWk0e4+Q/7QE5VHYQPwqqq8Q4oegS3XXhijyN22o8P4YMu8YDrcYp5ZHqEr2OtJVlrhjUgi9lFnn6stKCd/mkTPSdqr60jqyzZCCY8IxKs7XI1LAwTNtPppTtDZ+zX5VN0wzVT895O4l9neKKvwA12F0Qy0TH5AdqxXq/W2iLsredceeXnfGp250T8IMhh6FvH+Gebd4o7iTe4PSIFQSzg2i37nSMymUbCNtqi/wqg+a6MNUaPS8U9svm2FrY0h84wiu1XJM1Z5kPpPlOKriggdJsRNx7qRwoqQL6EOpPu9d/OS4BX9VUqSPeBrOJFe/cW2B/Ennhko+0FLtx+8OkyLLmMoJ9nxlM1E2K5jSNCpJiOaIj1tbSm/oQ3qjJvLHGq4YnqJHQdw6btQWFXeEPuLS6WbjeCv/Ep9iZCMqEXsHg1TmGI/g9qqMYZNpOLeU+d5opzgl3lWcbnB5iCFdLJmdO83lEYYQL4G/1IhclwRGsB13msHZLzpclyfzE3uJxZJ0mab7MFNcQBtEXM8+mLYAIyyHJeA9a8sU8bZChiTU4Fe8Q1DUygHmRbSBpSmR+bBhXHkLj45biCVvMn7VNwGP+uyTj47Uj2WM0I/G7SLWJaL3EMp83MPeNQ4azDoNmN3/MibVIzHLsw34POzOQK7ZdsDTYxCXKVGD33ViQkS7uhnOE49RvfwmaDDrpGHtu8dx/joNulRGF3M1nWR0ZIB/A2gw+4YGfMKWqDgV6WbNQG7CYtksLQfQZxmGTiKzzxiDK8c/XN9qX1zuDjr+ls0P74VMo5pMgqK0DuABc4JsR1tZWue1u9cs3D3ig6xyXMm+DJe1I52DsH53AMkEAVn+Ho/xR07u/hcJzoQspuNRBjVpHYBpBpwnpSQOM1kf6tBBP5Bg9vHrE6y5Rw3RotEbGQ8tAwkcwL1AoaJ3kTURG0elA15OBQUcQd1RgaJ/TWZCN6BSamLugQAOoU0kbHYvJjuNMgO1wYfevg56rVcJEj2AtJ1UHSKaclk3jL9jkI4KEV3lQ3iaWyhHfL4XjL9j2C1kCT9EamDJQeVtDINP3VGoc/nXO4khLIq4YBxV1+E0iO4wlIMBvEXPEyL6VRDdgeQP8Z3eSYtHx/eA6HMNPc/cY90BwhNcU8FCbs6Rd4lXE8cTbmQ/79qCMPM3aWHcHYvX2Kg7d9E9FYTLBpRL3V0Pw+7wvVtj0gnuFVbI0rhkvahVYDwMuuOJcBvdz1H0DWS1F6pRK0VoETU3SE+7VMpp1+55huiVjnStHgbX6lwhOfLMcQ6LukqSoiWpSRBEMddJ8HErqLq+ach9xXTckbV/gwcIfrARHS4FIz23cJVq9hqDbNDrkQVwAtnN76nIjkYq6ApGA2gLThRr/HothEDTCzrZwZ+txXskemlogmQHGtCgw2xUzC/nNB06jeYaDCgVYHrPnq1jOKYb48yRw+xOB82YPfxQI/aQFh1mr7cHhpMOpLicmNhBdIVMQxvOoH85AYaTEoqwRprrWntTi1Jfjq0uaYLBpIVofPXKgL4y2wynHd3h+Kj6ONik08NFBots7IUCbfzUPsxrvKXmuHsw/rsXIXmRHlwYy2B7rKu80JubmzsqDwxg9Nsk5cFQUkQ37yDK6WkOUGWILmaizXQUOFUp27ZlC9Z8E5SLpI1+kUDNV7TAIFJHvkDRByDcnUKKhb3QDTCCFHJMSH6zXAMDSCUhVaC586EsAc2dUHV+2/VRsMTRjLgwmLPk/sVSGDi6ceOa8qgqgr0a9TRc51Zb8jwM2TzAkEGe6KobcIEBmx+MpzQRSS6SH4HBmj+MHWfPb14mb4aBml80R/UwBUx4dKVA0tp8XNEVylUiT+QmTScvMMIAzU/qOxOrLqt0ASIPT0/PyYf/PEWxuv2BuRf7YWc+n5Fo+t2KewNV+3VNuv1HY/oUbp0JkIA+33E9dsWnzlRQOFA7UFiQcVuvyZRAyCsAAAAAAAAAAAAAAAAAAAAAAAAAAAAAAAAAAAAAAAAAAAAAAAAAAAAAAAAAPE0go9eJtF7pu2rna4defvNU2LZtP1j0uu/yZ+fLpYnTpQ3NPq310EPXVvEt63/+8bu/+c7vP9z+zua/Pvfcyftr330+a/2S+aC7ROlztbhD3qeo0UZDkUgrW3wXndv+x42rzU9wcPPJU68tX0L51e2eKI21lpaqHIn3Ar0fsnLnqT8/Y8ax+r2/Lfal+C0v8Y6xLRVZuxskX3Xow9VmFj762Xd/Renlqe3r/99ocHLJ1xz6h5mEjZ/8lMrraz2MqCbX49SqL/n3fTMpm998hb4LlIai2+k6serr//UjMwfu/5K6KxycprTntBqSpWpn1XznH8zc2PUXyhbyQSqryu6VHSUl5Y//61HjpJov/bWZK6tPraHpCtN7rSLf0UaEiMUyY7h173b2nlNqvvhVM3cW/ul1ii4xzfpkl1hnc3GiRfW3CkFzcrb60nONA5a3eO+0KsBXLWXBk+qdT/OXeWpuXvgBNaqnVkzpu256FwelZQ+33/kW8Iv2mXnzCS0XecTSZLvGxs2SNvWon2h0Ns19f8tfc/PGNyi5Sp+hqa1ams2nsp6pl/qAs4l+Di/piy+8t3nf5l0HX8R/5Z1v03GV/VOiq2xbOSgrp57/cCfT/IsX0Go+8+X2tefCtmUtzVocdm7rj7/8IUb1l1bS9KR33bX5NNMiepRzaf4s2iizb2vYF2v+707bsvwnYd9Dv/o/WkzFdeqnRH/Ldno3xDjl9P5PpJAfZNk70rZkvbQL9eW1VKzg34+beqYzJDbPv+jRhwHeziX6ScRG7HdLcXfIVoTj9VUqHnVNksXQHjH9U4ur9ajeqTTPshfx4N9X4Vf6399of8AvaHCvixUWg1zBtA+1FpNc4E2nEv0/9lN7GGMk3Nv2qn9rJw1X6hZg6biYGGL9aGzIciM8cCrN19i5Uw8+z3LIx/Ye2LdpuNSbFywKByj6Hxlo7pk2WNto+ziV6G8stFuWsTpM/0ve+YU0lt1xPJirxmxCKgxmjDFahJS7aUzIg6lEJBCJGqmpbtwEobgKDYWI/6ZC7MK0hI4QBupLqcSHUpYGi1TBGhHWhYoykJctQiiKUvvQp8CW0g4MLQtNnX875nfOvfd3TkycxPsmeHPu73zu+ff9/blt2uo8tf3orVPtf199/+f/+OOv//Tdt39/dr/CIy8hv8+9yrPDASHQeKvB1o9/euMbq9+68QXW3/74fu3dQ1CRMSNumoUTfHKiKoz9yV+o4VKffHC/mOvgwTuEGbPWQzjU16rD3F9+j8b8V/cs9r0lCejFUbf5oSR7UiX2/vtfBPO/fvDh/WKuagP7uCRuH67bA9DXu6rE4F988Ukx8//87t4laEIH2wbuxN0N93+rVRMQ/fHXH331Dvnfv30PP6YdhzILTkY3wpelz1M9Nn/nD//86Df/ffTo0Wd/+/qHH94/5sSJbQd535q9Wkf6q+v3f/7Bp59++rN7mrMKoTcj7/Nrqxp6dV/Gbo/JlNidnu3UOWwcmyl49trEQi/HSDfaHDpvvr0959B5bNURmaHqun5m0/l0e8uZyWSzlt/xZNXv9q4uJgXBrdU2CoJlNHsYnTWVtpHbQ67NLdpbXtMHJ6LPV2a+MWZg48nz9ITjveZtmww8O8yOvn5mtyAI26EXmdgs20OPTZz78y03rnxL4ljq3TEGgjsWAxTO7YaNVDtLAoLPAPIS9bj7psFIvyAaHclDY/KSwXQ2f7DDDo3RGNxX8bVbyqERc4Gip7m+SnuldOnUXJLo/4LG7r66bDvHT1O27KJdKLrclu3NYI7yryMnO9J1A9RBvDkBC4cKS9m9kx4Xv1NbbEyjsBSZ8tL6b2pL0hjt1smthOXomgsC6FvnXoOPs5pKV/pyQyOTDNDTPNWPhb63TI0xnoJrtdj7VD4seeMUu7gQMuwBbmWBewEf8S9ham2DZTN8O0Z6R+WNWWy7Beid9Lz7nRzHb52tX7kVI8OdKzhl2tYxQ/+BePHLHkOkJmxi45K3wI1PUQnIpg5wm5+cQyRG734R9bEF5fRozQtT6SP9gURRjWPWX3KkkriEAO1WOwq6FM2TGwPX+wTV5DDSBXJEZKdhprwEiJ7Z7kdDL6Rv/NMkrvDF0nm5oBdW2U4JjqDAkAiy5S8B+tK7cRvDFg6w4KgfQyOSUcSSvg+7zoOHvqV7+y/zPgvWmOlyQdeGWc6UsW229B/toY4b+jeey6YFfIM9OOohorCIcmyrpxncc6rCQ3e//f0RF94YQ0uZoBcu8T8yecCe9bWcFnmh778OYRqMM2WZJTCWpMl5RbGD18DW1R5mgF5YeN0NtgiLMUuTZYK+jC2nYYyO8uT6aQ87OaGvvopJHoywtfcUc3SzkjPWjMKUZ4XibZ+JBfp4NzvzQmFurDzQLchdYleQN8VTneCD3vxS+2BPLnWh9BlKR+zbZDVYAyKEQgE6K/NC4Vl5oAuo+VDlueBP7HW2c0GPvISQYm5NwISude3Q3jKZk9sIfPk2JtigX59ArRH2rpsoD/QvMfd7m0vI5i4MSIem2NSy0Pc5WnuCMWiikVZEKC6pALehAqDloR/ylDopD/SHiNv7NwolXcKpyKbIvYEeltL9NJoSh7rqhHpv8miCqoDOQnHiKfUUHbbLQB/SchjjzJUAPVsKdJ00c02jc3Tr1bU4LEgXWBV8UtPm1bDG/vIykNCNjityMArOvScvGuKuhtW5YYHeWysoUVXiKGJxBQaJ7ZOJOONlqG9x2GCQMGZ8PkeWuLFbhtWRa2MOH/fNLUsYE+SHfrZTePU0dh7ojj6p0+dwdnzIPykaxevr7MtoZnVUSnlw7kp4gszP1nt7n/dmDvdgT0VEOB9qBkLrvofeN/3tOE+PL9F6yolyeTqkxoG7z1xfrPx7iBdkj+6Yqw++MYZ4W1MirEZqcGZ70wnda2PqPAnfAXXOW+R32tva4r3Xj5OJ72mZoYsSVRWFuf0WuOHNRS+cdGHeqXQQrodnotbd4hVSszQeAEeNulyKUiIK6TXrlJZDN1Kzg+/iRR0Ec7dPaT2E+74gUBW1G3E/wDmWaKBsCdx+VcmXI+5mhF43RUfenKaeiI2zR9vUiepKyWvdD3SATPGcupTS0xTyNYp6ECl1zSsUelZ8x2/e6HqyYvCBTVGoLy5v0nipLuqU0alOWhCymaJ4Pr8Ff5v3ihH6LhXhXFTa7mPXAO2WxwoTlQmcaBZvTkpCn9T2LEBSX0T61nWbGjn3TWt7zuQ5i+2R76/y7sqrLt4pbNw0pmdcagCEySk+dAvR9bDaihJ0PU2HS67LSzrhEK0XT+Uj7HUyx9gls7SzfJd4xQawCUeDKXn/kWVzRU2ZBXaVf7ledjo4pQAAC8ZJREFULeP5l3HvDBEPJJzdwlC/1DBBb6BtLhSdpqZxyjnY+VAp0ENSjszL3egiAqiOsJ1RZ77SMgvLp6qSoG/KHimJtcQdvgXorUzQp918oRd1JxR3aN8gH/SIfHSEl4jDOMB3hz7LCj0ulgR9XN7xmIc7U8NCpaHbKPP0ig7VTpSysMe4oEeUGhyHQ30THWPW3R5iZH6A2jBIQncpvDJNxNT6uNLQKbpVMzaOJ0qG2Gx1ckDfUWwwDysBhrDroH7czci8AbdJlIJ+ofg6tkNjOioMvZsUxjvwAVZmUphqq2OGjglQhpvNGaSfYk3NOre3Il95Cehzncp3QmOcFYa+TxxptgP4lkTSRabWsULvwexj4O7HmUc939AAqw/hOXbdoEMfQHi3CC2sx1ZR6CLxtQv3KUtTFM1rlxU6SnuGvgzMoUrVlTGwjnNLylQSdFTvBYExQn9FoUeJQ2MfWxylnxhKfTY26FeoXs4L7EKsyVXguObSIj/0LGrMtgk8XsNbg06oJdsJtraMGcLwWTboaZy4DDY/gnKugInqUXA6NUqD3VXPC12D670w2ABbKjrSc9slu/T7CQ1zYZ4F+hZuPZtnht5FY65e8AdO+5TSKrJhTujjuISic3BSF1oqCX0fHmeW9cytnRIapJUFehTZzCgjdJESYrv8bNKoUo05Es/6euQjfE+MXNCR2Qv1wDuibaskdGIwXLK3liPiL/QM0NHO5Cwj9ClyFn+Qf3ucbPKEe2UlGyFj5YC+gkxG1YFb7UMVhH4MD4yWBHtrVmJISQ4TCvR1bBGkTTboaWKHqhkv0nPESZ9cGK4mZWWHnkba0tkBRrq5gtBjMApGzdNcO+zfZhsauh29b2Ub6eRmpeAics09+eCyNHYl6iT00clqgA6XdLzv6uY12QEFCh0a+iJaQn/AAl0k5AONi/YmipPmkKQPLigyQm+1VgH0sQOw7gl6nubEdTh819DQ1+fLAp10KFxILLdNut1NCezuKCN0c1MVQPd8DjetfO2lge6lOW3CQn+oKgf0fiKsLuSV/m9PTGJxl9f3CehOdObxXUI/nuGJLEaoco+NSOjCYFmguxhjNkdi9JAe2eJSBPSsoxqgJ0AUhJ2z/q0enn7mRCT0K2s5oOfgS6hdUPr1ER/1s6zmOgboL2zVAD0AOkfL+fkKD+E16kJCbxDLAZ0Y6FnE+VlPS+Ub9TJAD4rVAB1WTBA4k6VJ8cuKhH40Xwbo3iRXFKUtSBHlZUobEdD3qwK6GTp7OCvfNK3zQvfVlQE6ESIQwdEQT5iGOoTe2K6qSug6zgaHeKG3Nd0+9Ca4w0hiaYinBYboAAhdmK5K6E7eophmXugMhXbQ0CcJmRG9q6aUZXgxgoZenSN9ebDS0PvLAH0IpHC6GWRGMg1qqb7GoQudlZ7e9WWADnMRkyx1uwJQnWtcq3XovCUMM+8TdKg4bbBUT/SsoBX4WoHOeWSbT71H0D1QmWlmqri8S4j2ttqCDuVTLednyGxwRrV03R304yR0ozPZ0g+drQ88tQU9D2VYzqiderj9CYl3Bz0Mpi/DOpMtDji/753VFnTCGXXJ114LzGR8cofQ0yCZVnvEZAtR/fvKW1vQdVDGGOVrLwZdq0dNdwc9BqFPsUGHwr0zUVvQjRdAsLTwfQoClvM1ROveH+iaeGnQk/7agq6aAqdSxeo61OuM8JJLCRp3Av2gNOgD+RqD7oMhjRGe5ogYiqztDqG3QBU2yyQu21rhkndcY9AnYMyo08vempEo1p4R7xC6d4AzqfkNSrjPCXXWGHQjjBKyT7G35oWRdgXJLOJKQO+CRwlLlMWaWTj5zTlqDLqqF6byLrJnSsdgNw133yV0onyBgWknR5QFXrXVGnQYMMUR+U6WCTsU7xT6CncOwkttZpMI0u6qNehjc3zZ4jc3g0TUuHQli4pAh67Vgp2h4m6YSJKINtUadNUC0UMZRgkWfgGtsOe4W+h6Iottph490IkPhUkX5q5e6J1EzpczwNLU/9u7n5DEtjgO4AfJRiOJYBjn9cf3QBBEzGgxEckg9FArUBTFaHNpFrMJNIPANi0EhccsZim1jyBoIBwJciNF8DZB4KJHA+1bB7O9L1/vzSvvueeec+4dZ4rvZ921e87Xe71/zvkdr7boDGOeR09CT61rpzTx/pMx7VT12ecXOklrJ/SKnODfa8pGzjOC7EnoZFszqtXDOZ30Rjv4/cz9DENf1pZfKvGPSy5ry8rWvD869Btt4bh1rinYlIUT+/SnKj3h0CnLjjgU3jW9XNop2vOsRyG9Cd23rx3UWueYNGenzG3aXHyWodsnpVM/ofTSWuGHh05bnUutG5Z1+Ys2n40xvu4ph060w37VoMIzPSCb125ZZN4T9yj0EK2W+Yf37G/yYZGy0XHoyYbO/kGjVQQeqBmPhl6gnEUNygZZGTqrn+K09YU8NcaLBXuNtpJ0kFWh0MLQp5lDlsqHKw+MH55whW4wbzpHa2/YYMHxwBmtcsfRRK9CZz5P8NGLff8a1xn6FDnbp26Q9vUm9GCD9debfZ4H+jwKT+hGb8ltM9QZ+ReMg912Q13eqWgw2tjC0NUM64nLAn1JqaF8K6v5WvpcrTy9KMEG84tvYejqMeuVR/fe1XhCV/MG12Ux6oERXHqv82DC3y5Ry+8ZNtvK0NW9Q1e7IxuhPA36rOoohi/O7bF/L1n8i/ab02pdr4Rk3Nar0B2b0bf/NKY9aDM8x81whe44enX/iW91UnTRV1P2LI0ua++6R6LNIr2TGqlehq5OXhc7DkqU26rAsV7q6ov1THhKGR0dG12bqmbe6S/x0mS/cbQydFU9uG9M4tZrUeh3H1m8p1dqIqpTQNFTT8+VR/6/Cwu4PrZeHuh0kmHlNYtD/3bI077KLvYyogN3P4597Or/wxHSw9C/TZj0WRb6f2Z0H6fqrauovnk3PNWKj3Wc1rauJ3V7ast4VOX3CZ3+ACX6h2pK3ahs0PcJPe21OnRG7RX91DsXQNMvOgZY9ZO3ONbXMBP6n4Khk1VTqW8Y1gQ2EfplxvrQv+iFE1wjcqkb+8qzpoqZ0D+Jhk5Wf5dvTsJ4hpeJ0N2b1od+pEqE7lydNJF5mquIhZnQtx2ioZOFddnmHHOUhDMROtn6SY50Qs6vZftooMU3tM5M6BdDwqGT7Ce59lR5BliZCT3tsDz0ZFAqdGK/kvz92+WsF2Qm9NcD4qGTweaQeHOmFal12URCbwQtD32uTy50EjuTufipcpfHNBN64EAidDKxuyPanEyO7x2jmdDbG5aHfrkjGTrxRyuifTQ/xj+DxEzomhlzXKET2/JtUKQ5HiXCuT9mQtf/UZcOnZRkQ+/UyzwQ6aOhkou/FJy50EN5mdA7y71/5W9Of5t3AIm50O0Jy0OPZaRDv9ufFv85fi8qtKDXYMVE6KRdlwr97vxVDnPdj3rCWbdAbvJ15BhPDOVDJ/a6fOiERBSuo91TfSW42nuk+2BtC23uq63TTtV7xtddBXttx2BB7aHi9olbKLYP3WMJbCKbh2oJ2iV8WPsYtvtNh249FV8yQesfzlIcttDcS4MnG8GdW5ebCIpdVPsf2vxNbPtUbFzp7xY+5Skl7VzMNfd1j3dPvnkYSIntTKj1qDFXXwRX1EvNrm5rGtM/pz11Nh79wdUv+mWbnbEV5ajrA6+O+M9A/pNGRfcS801+anzWScQ5C86H3OKfYEs5uxS4dyRQHt3e05zE5vPN+PmETXxXUo92JVWQ6A5NY1JOw/+Tcgr1T6og1DT/ya4STnS9YHHM50tjZZ9EH/0cJuzl3GpDSfZXhqvJ5Nrux/JyjMAj3kh2YaWhfN6qVJaSijL39PvI7fXNlqO5eDJ5llu4GZnwum2IufsSyO+buOuj02RSyUWjlz70EQAAAAAAAAAAAAAAAAAAAAAAAAAAAAAAAAAAAAAAAAAAAAAAAAAAAAAAAAAAAAAAAAAAAAAAAAAAAAAAAAAAAAAAAAAAAAAAAAAAAAAAAAAAgGX+BjzkrqmQHauQAAAAAElFTkSuQmCC;" vertex="1" parent="kRqwa3o0PPWYJBAYLQpp-8">
          <mxGeometry x="6.5" y="6.5" width="47" height="47" as="geometry" />
        </mxCell>
        <mxCell id="kRqwa3o0PPWYJBAYLQpp-9" value="" style="group" vertex="1" connectable="0" parent="1">
          <mxGeometry x="-115" y="590" width="60" height="60" as="geometry" />
        </mxCell>
        <mxCell id="P5VV7uiac1PhrCfYSXpr-38" value="" style="shape=ext;double=1;rounded=0;whiteSpace=wrap;html=1;" parent="kRqwa3o0PPWYJBAYLQpp-9" vertex="1">
          <mxGeometry width="60" height="60" as="geometry" />
        </mxCell>
        <mxCell id="P5VV7uiac1PhrCfYSXpr-43" value="" style="shape=image;verticalLabelPosition=bottom;labelBackgroundColor=default;verticalAlign=top;aspect=fixed;imageAspect=0;image=data:image/webp,UklGRvoHAABXRUJQVlA4TO4HAAAvx8AxEP+goG0bxvwZd5cGw7aRFOX6b5SZ6V9AUOT/aIwbSXJS+cd53uHhSYD//3384wbbKLNJdFp7Si6K1ovebzqxla27DXywwQ4dAkTI0ODwlwkVbr+Ho6BtGybmD3sHQ0RMQCckmnh1rJRsW40kSZaZw76QUGeS2P82LXrxgRpG9B8SJMltm12gAAYcJAeEA4m7tyvZVuKowCnO4v5X21GTKPR3RP8ZQZLUZNaMIiY4gvq/wCl77/XwkSSXwxRZc/RWS2HOb8hcSm19zCXi473r7rVk+hJzqf1ent0qe/bKiQ4xce1zu4TnWqbjzM8lcQV7ts/8/s9V0/wQ+5whZT4nHMDqTBDkvmy3KLNmgmGudv9F9ygERh7bZO5j2Siit71cJlDmvg3m3M/IzQROvm20NLOQAZZpoFRLZIKpbUOlPC+0aiJDTHXB4s5kjPk2IdNvkZPJJHnC1TYyGWUeghWf2+yyIYVVyDTLgpRhVQRwM+9ywz8SOcA0ANCf6ELo6lW+RC+C6KI90Y3QdLsrAuK/nw//KQfxocTvH9++ff9ttMBTAhCnO71aASFyp3ciSBzvNDrimckjUD4/NFqMFingj8jBxlunKyxoMVmEH+qqDKxuOd1hYaFcCgYh6NAY5IPMSm9Bw0poIh333KqEZOBBqFyW4sFGkkDZIdwop35MN4Ty9bAHx7Q3SDdVP+4EbWo/N0xBjRMmnN2oWet4ad7J/SgO5FVUYxNxT4ZXhsklO26l77t3YhkcdOXkOutEXRWnjZ9PU+59wZhzMAOo/MG4v4qVc9XreSfUlzw8rnjf6OcW2ZBIcYzjx9T2Db1nB/P55ephg6pksH6eWAcOpsAVlh5OhHN1ERPm3j/QqQW1uFnOLJrgw9K2juPf8PZMm0jcDNUboJTB1bV9xSvze9AZE+kGLnMbPzg9a/SSDzERXpXTJh2rjd9E720O7Yl99M+nWXnwY5YP2Xu+pdRgIpdRxxn87OI57scDOYmuntb8rNWlzO81QG+1iF2Vz6PaJvNua6ceH7XKnH3RcHo+CB9DHg+ONp8ECFA86DzIY9BQHkJ49VG4LgRYaJoZy502KB4zJmSe7aHyR13g4qALrjwrKgCMOdsfV96gfWnYJ0Z3lYDowfdBEfyL8tgb3xmpvshFGwejnHUnj6AjmP0GfzRvIycAMI9r5gGjDNzsOXi/f+w56N3Dhoc2SArt3dJwUHqQEgLLe1omOMz6AmjhThYB2QVL9R71Hb2G98hbWyotJB2ayleCneVaD35WlEhXnvJ4wEmmdbs6ZRKpr+9k/X+/I0D2XCv5j7ReK/fxoBY6hJrKv+OBlnoN5o0VD2tJob5a+4oARR7kCJAfLIoAtF/NQSHGEU5PMkKZL3pxDLaFSCZDddLTykLUy0K10zJAYuiqOoEIC5WHxWUZIDG066oxoF5XiQElEAjHAJYdB3IMyDsOrCiw/gegl7hQ6ynOyr0tAyQLbApi66H6PcpiN8N7uMWRHFgt1ZvALCb9FTUE2CUvBrXxKdltmPbn7OyM28Akhgp+DBDE5N+aEq6NXGLy010JdiOWpJRvDCWYjRgZDDX9H+mNaBlMNX1s+ztsNf046a0zUsrHpYCfRhkU0Vs/cn9ms6q4nuc3Di459Xm3DtKHx9D5EGPwl1WS7Ij79Xo30HRBX6nNMRCVYBFAZTn13cIAA6KnVxBbyaXS9GKMISntD/RuTPjCn0S9U/ZWK6W0uWLrvflpvrcYvCu824NcHWTiY++lyQ3vMQCOL7e3n9fPBrpm3D5naqnN8KmvvbdLPd8a47muKXgfYqr3E+2QbXupnZUS9+B/7r2+Mb5VuL10GsYXmsyVeqewlcOvZ1UADQfG3usr2wIhpIfgoM29F6YuikusUa2NhfbatFCAD50OxM9F/3nbgIvxXsvCE9f2tpprYYtXvlsvCsR2LAjPo0cN2lrn74KCnajItj36JD2W3IhoKNbcKl15vR+A9b5GhL2gZzW/Qd6foRK9s9YAiB01jPeZKNrb7sQT74kym9d/YyPZye0Ajt37ZbpdMI1+HcLw8bgDvH9J/mF9qQ556W8nROFoD6qweh9W+eak4DA811Z57LbdMTy7GZBNYMb5hZfTEBPG5zZ/MZWC42VDqApOeJrA02eVabWH4wNik5FWT9xxMHIZ6ycGjssSE3f1hPR5MPMZf06IJYBnOz6t8jcMsBwK97/Cg4MJywDdWH4AWEHz5DlQjpcygex3mPA8KvPIRusXaYYBhfk3c+90cnzKwNJm/aVZqacTqTnqKkD75SZ1Ov11DHLRXpyK/D/nL+2gfkOsS0Pb35uCEmoO8cbbbz3Zg2tXGf9WGOmoPlZcticNVHsEJXrnnN99bwfi+n80de0TDZaekIqwIvD2OtrrZ9R59VwNdnSalwH7KeWlZWFrT3adMBz+rUKeJuzZ5DcdDvFhi26eUFciJv+zwTbaUR0+N15r890+tgjJJPL3bl0hUDT47RcjRP/zx1UUL4PjkisRu/YSitbplFbHWkkxptL4NbZrYtTM3l/pL/HFXmAU9hvDsKcZhn3TMOzNhmH/NwZ7zKlJGPaxo7BXHob9+Cjs+YfhX0EY/i5E4X+EBX8wDGRSmZcJmvDPw5jvKlF4fgKci8KfmBD8uyljR+FvTxT+D0kI/iiF5B+U/eJDy1+rIPznisGfMf/9S9vitMdsb/x9w/+pXQ==;" parent="kRqwa3o0PPWYJBAYLQpp-9" vertex="1">
          <mxGeometry x="10" y="10" width="40" height="40" as="geometry" />
        </mxCell>
      </root>
    </mxGraphModel>
  </diagram>
</mxfile>
